<svg width="360" height="800" viewBox="0 0 360 800" fill="none" xmlns="http://www.w3.org/2000/svg">
<g clip-path="url(#clip0_18_2)">
<rect width="360" height="800" fill="#181686"/>
<path d="M460 22C460 88.8265 407.393 143 342.5 143C277.607 143 225 88.8265 225 22C225 -44.8265 277.607 -99 342.5 -99C407.393 -99 460 -44.8265 460 22ZM285.23 22C285.23 54.5714 310.871 80.9758 342.5 80.9758C374.129 80.9758 399.77 54.5714 399.77 22C399.77 -10.5714 374.129 -36.9758 342.5 -36.9758C310.871 -36.9758 285.23 -10.5714 285.23 22Z" fill="#D21E9F"/>
<path d="M480 422.5C480 375.832 443.287 338 398 338C352.713 338 316 375.832 316 422.5C316 469.168 352.713 507 398 507C443.287 507 480 469.168 480 422.5ZM358.033 422.5C358.033 399.754 375.927 381.314 398 381.314C420.073 381.314 437.967 399.754 437.967 422.5C437.967 445.246 420.073 463.686 398 463.686C375.927 463.686 358.033 445.246 358.033 422.5Z" fill="#712AE4"/>
<circle cx="149.5" cy="55.5" r="7.5" fill="#D9D9D9"/>
<circle cx="169" cy="254" r="27" fill="#D21E9F"/>
<path d="M58 338.5C58 364.734 36.7335 386 10.5 386C-15.7335 386 -37 364.734 -37 338.5C-37 312.266 -15.7335 291 10.5 291C36.7335 291 58 312.266 58 338.5ZM-33.1412 338.5C-33.1412 362.602 -13.6024 382.141 10.5 382.141C34.6024 382.141 54.1412 362.602 54.1412 338.5C54.1412 314.398 34.6024 294.859 10.5 294.859C-13.6024 294.859 -33.1412 314.398 -33.1412 338.5Z" fill="#712AE4"/>
<path d="M432 383.5C432 423.541 399.541 456 359.5 456C319.459 456 287 423.541 287 383.5C287 343.459 319.459 311 359.5 311C399.541 311 432 343.459 432 383.5ZM289.883 383.5C289.883 421.948 321.052 453.117 359.5 453.117C397.948 453.117 429.117 421.948 429.117 383.5C429.117 345.052 397.948 313.883 359.5 313.883C321.052 313.883 289.883 345.052 289.883 383.5Z" fill="white"/>
<ellipse cx="97.5" cy="84.5" rx="97.5" ry="84.5" transform="matrix(1 0 0 -1 -61 854)" fill="#712AE4"/>
<path d="M58 143.5C58 109.534 31.3609 82 -1.5 82C-34.3609 82 -61 109.534 -61 143.5C-61 177.466 -34.3609 205 -1.5 205C31.3609 205 58 177.466 58 143.5ZM-43.15 143.5C-43.15 119.724 -24.5027 100.45 -1.5 100.45C21.5027 100.45 40.15 119.724 40.15 143.5C40.15 167.276 21.5027 186.55 -1.5 186.55C-24.5027 186.55 -43.15 167.276 -43.15 143.5Z" fill="#712AE4"/>
<path d="M37 338C37 352.912 24.9117 365 10 365C-4.91169 365 -17 352.912 -17 338C-17 323.088 -4.91169 311 10 311C24.9117 311 37 323.088 37 338ZM-14.8066 338C-14.8066 351.7 -3.70029 362.807 10 362.807C23.7003 362.807 34.8066 351.7 34.8066 338C34.8066 324.3 23.7003 313.193 10 313.193C-3.70029 313.193 -14.8066 324.3 -14.8066 338Z" fill="white"/>
<path d="M37 338C37 352.912 24.9117 365 10 365C-4.91169 365 -17 352.912 -17 338C-17 323.088 -4.91169 311 10 311C24.9117 311 37 323.088 37 338ZM-14.8066 338C-14.8066 351.7 -3.70029 362.807 10 362.807C23.7003 362.807 34.8066 351.7 34.8066 338C34.8066 324.3 23.7003 313.193 10 313.193C-3.70029 313.193 -14.8066 324.3 -14.8066 338Z" fill="white"/>
<path d="M37 338C37 352.912 24.9117 365 10 365C-4.91169 365 -17 352.912 -17 338C-17 323.088 -4.91169 311 10 311C24.9117 311 37 323.088 37 338ZM-14.8066 338C-14.8066 351.7 -3.70029 362.807 10 362.807C23.7003 362.807 34.8066 351.7 34.8066 338C34.8066 324.3 23.7003 313.193 10 313.193C-3.70029 313.193 -14.8066 324.3 -14.8066 338Z" fill="white"/>
<circle cx="290" cy="227" r="14" fill="#D9D9D9"/>
<path d="M188 264C188 278.912 175.912 291 161 291C146.088 291 134 278.912 134 264C134 249.088 146.088 237 161 237C175.912 237 188 249.088 188 264ZM136.193 264C136.193 277.7 147.3 288.807 161 288.807C174.7 288.807 185.807 277.7 185.807 264C185.807 250.3 174.7 239.193 161 239.193C147.3 239.193 136.193 250.3 136.193 264Z" fill="white"/>
</g>
<defs>
<clipPath id="clip0_18_2">
<rect width="360" height="800" fill="white"/>
</clipPath>
</defs>
</svg>
